<svg width="114" height="114" viewBox="0 0 114 114" fill="none" xmlns="http://www.w3.org/2000/svg">
<path d="M57.5 40.8496C65.1337 40.8496 71.3959 46.6853 72.0488 54.1074L73.0127 54.0498H73.0215L73.5459 54.0625C78.924 54.3298 83.1502 58.6904 83.1504 64.0996C83.1504 69.6836 78.6467 74.1504 73.0215 74.1504H44.1953C40.9216 74.1503 37.782 72.8595 35.4668 70.5625C33.1515 68.2654 31.8497 65.1495 31.8496 61.9004C31.8496 58.6511 33.1514 55.5345 35.4668 53.2373C37.759 50.9632 40.8593 49.6759 44.0977 49.6504C46.3582 44.476 51.4855 40.8496 57.5 40.8496ZM57.5 43.3496C54.8575 43.3511 52.2884 44.2129 50.1875 45.8027C48.0866 47.3925 46.5701 49.6231 45.8701 52.1504L45.8379 52.2686L45.7148 52.2598L44.1953 52.1494C38.7337 52.1496 34.3672 56.4845 34.3672 61.9004C34.3674 67.3161 38.7339 71.6502 44.1953 71.6504H73.0215C75.0404 71.6504 76.9771 70.8545 78.4043 69.4385C79.8314 68.0225 80.6328 66.1016 80.6328 64.0996C80.6327 62.0978 79.8313 60.1776 78.4043 58.7617C76.9771 57.3457 75.0404 56.5498 73.0215 56.5498C71.8027 56.5498 70.6288 56.8307 69.6084 57.3477L69.3145 57.4971L69.3945 57.1777C69.5444 56.5829 69.5459 55.9633 69.5459 55.2998C69.5458 52.1309 68.2764 49.0917 66.0176 46.8506C63.7587 44.6095 60.695 43.3496 57.5 43.3496Z" fill="#7FA8FF" stroke="#7FA8FF" stroke-width="0.3"></path>
<path d="M60 20.8496C60.5702 20.8496 61.1173 21.0763 61.5205 21.4795C61.9237 21.8827 62.1504 22.4298 62.1504 23C62.1504 23.5702 61.9237 24.1173 61.5205 24.5205C61.1173 24.9237 60.5702 25.1504 60 25.1504H56C55.4298 25.1504 54.8827 24.9237 54.4795 24.5205C54.0763 24.1173 53.8496 23.5702 53.8496 23C53.8496 22.4298 54.0763 21.8827 54.4795 21.4795C54.8827 21.0763 55.4298 20.8496 56 20.8496H60ZM56 22.1504C55.7746 22.1504 55.5588 22.24 55.3994 22.3994C55.24 22.5588 55.1504 22.7746 55.1504 23C55.1504 23.2254 55.24 23.4412 55.3994 23.6006C55.5588 23.76 55.7746 23.8496 56 23.8496H60C60.2254 23.8496 60.4412 23.76 60.6006 23.6006C60.76 23.4412 60.8496 23.2254 60.8496 23C60.8496 22.7746 60.76 22.5588 60.6006 22.3994C60.4412 22.24 60.2254 22.1504 60 22.1504H56ZM62 14.8496C62.5702 14.8496 63.1173 15.0763 63.5205 15.4795C63.9237 15.8827 64.1504 16.4298 64.1504 17C64.1504 17.5702 63.9237 18.1173 63.5205 18.5205C63.1173 18.9237 62.5702 19.1504 62 19.1504H54C53.4298 19.1504 52.8827 18.9237 52.4795 18.5205C52.0763 18.1173 51.8496 17.5702 51.8496 17C51.8496 16.4298 52.0763 15.8827 52.4795 15.4795C52.8827 15.0763 53.4298 14.8496 54 14.8496H62ZM54 16.1504C53.7746 16.1504 53.5588 16.24 53.3994 16.3994C53.24 16.5588 53.1504 16.7746 53.1504 17C53.1504 17.2254 53.24 17.4412 53.3994 17.6006C53.5588 17.76 53.7746 17.8496 54 17.8496H62C62.2254 17.8496 62.4412 17.76 62.6006 17.6006C62.76 17.4412 62.8496 17.2254 62.8496 17C62.8496 16.7746 62.76 16.5588 62.6006 16.3994C62.4412 16.24 62.2254 16.1504 62 16.1504H54ZM64 8.84961C64.5702 8.84961 65.1173 9.07629 65.5205 9.47949C65.9237 9.8827 66.1504 10.4298 66.1504 11C66.1504 11.5702 65.9237 12.1173 65.5205 12.5205C65.1173 12.9237 64.5702 13.1504 64 13.1504H52C51.4298 13.1504 50.8827 12.9237 50.4795 12.5205C50.0763 12.1173 49.8496 11.5702 49.8496 11C49.8496 10.4298 50.0763 9.8827 50.4795 9.47949C50.8827 9.07629 51.4298 8.84961 52 8.84961H64ZM52 10.1504C51.7746 10.1504 51.5588 10.24 51.3994 10.3994C51.24 10.5588 51.1504 10.7746 51.1504 11C51.1504 11.2254 51.24 11.4412 51.3994 11.6006C51.5588 11.76 51.7746 11.8496 52 11.8496H64C64.2254 11.8496 64.4412 11.76 64.6006 11.6006C64.76 11.4412 64.8496 11.2254 64.8496 11C64.8496 10.7746 64.76 10.5588 64.6006 10.3994C64.4412 10.24 64.2254 10.1504 64 10.1504H52Z" fill="#7FA8FF" stroke="#7FA8FF" stroke-width="0.3"></path>
<path d="M94.571 89.7065C95.0482 89.7065 95.435 90.0937 95.4352 90.5708C95.4352 91.0481 95.0483 91.4351 94.571 91.4351C94.0938 91.4348 93.7067 91.048 93.7067 90.5708C93.707 90.0938 94.094 89.7068 94.571 89.7065Z" fill="#7FA8FF" stroke="#7FA8FF" stroke-width="0.3"></path>
<path d="M94.571 95.4209C95.0482 95.4209 95.435 95.808 95.4352 96.2852C95.4352 96.7625 95.0483 97.1494 94.571 97.1494C94.0938 97.1492 93.7067 96.7623 93.7067 96.2852C93.707 95.8082 94.094 95.4211 94.571 95.4209Z" fill="#7FA8FF" stroke="#7FA8FF" stroke-width="0.3"></path>
<path d="M94.571 101.135C95.0482 101.135 95.435 101.522 95.4352 102C95.4352 102.477 95.0483 102.864 94.571 102.864C94.0938 102.864 93.7067 102.477 93.7067 102C93.707 101.523 94.094 101.135 94.571 101.135Z" fill="#7FA8FF" stroke="#7FA8FF" stroke-width="0.3"></path>
<path d="M103.857 86.8496C104.276 86.8497 104.678 87.0165 104.974 87.3125C105.27 87.6085 105.436 88.0101 105.436 88.4287V94.293H92.5781V98.2783H98.293V100.007H92.5781V103.993H98.293V105.722H92.4287C92.01 105.722 91.6085 105.555 91.3125 105.259C91.0165 104.963 90.8496 104.561 90.8496 104.143V88.4287C90.8496 88.01 91.0165 87.6085 91.3125 87.3125C91.6085 87.0165 92.01 86.8496 92.4287 86.8496H103.857ZM92.5781 92.5645H103.707V88.5781H92.5781V92.5645Z" fill="#7FA8FF" stroke="#7FA8FF" stroke-width="0.3"></path>
<path d="M105.436 107.15H105.286C104.386 107.15 103.501 106.914 102.72 106.466C101.94 106.018 101.29 105.373 100.836 104.595C100.383 103.817 100.141 102.934 100.135 102.034C100.13 101.134 100.361 100.247 100.805 99.4644C101.249 98.6813 101.891 98.0285 102.666 97.5708C103.441 97.1131 104.322 96.8666 105.222 96.856C106.122 96.8454 107.01 97.0708 107.795 97.5103C108.436 97.8683 108.988 98.3598 109.421 98.9468V97.564H111.15V102.15H106.564V100.421H108.316C108.068 99.9449 107.711 99.5323 107.273 99.2183C106.771 98.859 106.182 98.6419 105.567 98.5903C104.952 98.5388 104.335 98.6548 103.781 98.9253C103.226 99.1959 102.755 99.6111 102.418 100.127C102.08 100.644 101.888 101.242 101.863 101.859C101.837 102.475 101.979 103.087 102.273 103.629C102.567 104.172 103.002 104.626 103.533 104.941C104.063 105.256 104.669 105.422 105.286 105.421H105.436V107.15Z" fill="#7FA8FF" stroke="#7FA8FF" stroke-width="0.3"></path>
<path d="M56.2866 95.9409V102.151H54.8041V95.9409H56.2866ZM59.2407 99.4868V102.151H57.7592V99.4868H59.2407ZM62.1957 98.3052V102.151H60.7133V98.3052H62.1957Z" fill="#7FA8FF" stroke="#7FA8FF" stroke-width="0.3"></path>
<path d="M60.8633 88.8496C61.2165 88.8496 61.5559 88.9905 61.8057 89.2402C62.0552 89.4899 62.1953 89.8286 62.1953 90.1816V90.623H63.8184C64.1715 90.6231 64.5101 90.7631 64.7598 91.0127C65.0094 91.2624 65.1503 91.601 65.1504 91.9541V104.363C65.1504 104.717 65.0095 105.056 64.7598 105.306C64.5101 105.555 64.1714 105.695 63.8184 105.695H53.1816C52.8286 105.695 52.4899 105.555 52.2402 105.306C51.9905 105.056 51.8496 104.717 51.8496 104.363V91.9541C51.8497 91.601 51.9906 91.2624 52.2402 91.0127C52.4899 90.7631 52.8285 90.6231 53.1816 90.623H54.8047V90.1816C54.8047 89.8286 54.9448 89.4899 55.1943 89.2402C55.4441 88.9905 55.7835 88.8496 56.1367 88.8496H60.8633ZM53.332 104.214H63.668V92.1045H62.1953V93.877H54.8047V92.1045H53.332V104.214ZM56.2861 92.3955H60.7139V90.332H56.2861V92.3955Z" fill="#7FA8FF" stroke="#7FA8FF" stroke-width="0.3"></path>
<path d="M7.65625 84.8496C7.87008 84.8496 8.07536 84.9347 8.22656 85.0859C8.37776 85.2371 8.46289 85.4424 8.46289 85.6562V102.719C8.46289 103.201 8.65404 103.664 8.99512 104.005C9.3362 104.346 9.79889 104.537 10.2812 104.537H27.3438C27.5576 104.537 27.7629 104.622 27.9141 104.773C28.0653 104.925 28.1504 105.13 28.1504 105.344C28.1504 105.558 28.0653 105.763 27.9141 105.914C27.7629 106.065 27.5576 106.15 27.3438 106.15H10.2812C9.37123 106.15 8.49895 105.788 7.85547 105.145C7.21198 104.501 6.84961 103.629 6.84961 102.719V85.6562C6.84961 85.4424 6.93474 85.2371 7.08594 85.0859C7.23714 84.9347 7.44242 84.8496 7.65625 84.8496ZM20.7812 95.3496C21.6913 95.3496 22.5635 95.712 23.207 96.3555C23.8505 96.999 24.2129 97.8712 24.2129 98.7812C24.2129 99.6913 23.8505 100.564 23.207 101.207C22.5635 101.851 21.6913 102.213 20.7812 102.213C19.8712 102.213 18.999 101.851 18.3555 101.207C17.712 100.564 17.3496 99.6913 17.3496 98.7812C17.3496 97.8712 17.712 96.999 18.3555 96.3555C18.999 95.712 19.8712 95.3496 20.7812 95.3496ZM20.7812 96.9629C20.5424 96.9629 20.3056 97.0092 20.085 97.1006C19.8643 97.192 19.664 97.3263 19.4951 97.4951C19.3263 97.664 19.192 97.8643 19.1006 98.085C19.0092 98.3056 18.9629 98.5424 18.9629 98.7812C18.9629 99.0201 19.0092 99.2569 19.1006 99.4775C19.192 99.6982 19.3263 99.8985 19.4951 100.067C19.664 100.236 19.8643 100.371 20.085 100.462C20.3056 100.553 20.5424 100.6 20.7812 100.6C21.2636 100.6 21.7263 100.408 22.0674 100.067C22.4085 99.7263 22.5996 99.2636 22.5996 98.7812C22.5996 98.2989 22.4085 97.8362 22.0674 97.4951C21.7263 97.154 21.2636 96.9629 20.7812 96.9629ZM14.2188 88.7871C15.1288 88.7871 16.001 89.1495 16.6445 89.793C17.288 90.4365 17.6504 91.3087 17.6504 92.2188C17.6504 93.1288 17.288 94.001 16.6445 94.6445C16.001 95.288 15.1288 95.6504 14.2188 95.6504C13.3087 95.6504 12.4365 95.288 11.793 94.6445C11.1495 94.001 10.7871 93.1288 10.7871 92.2188C10.7871 91.3087 11.1495 90.4365 11.793 89.793C12.4365 89.1495 13.3087 88.7871 14.2188 88.7871ZM14.2188 90.4004C13.7364 90.4004 13.2737 90.5915 12.9326 90.9326C12.5915 91.2737 12.4004 91.7364 12.4004 92.2188C12.4004 92.7011 12.5915 93.1638 12.9326 93.5049C13.2737 93.846 13.7364 94.0371 14.2188 94.0371C14.7011 94.0371 15.1638 93.846 15.5049 93.5049C15.846 93.1638 16.0371 92.7011 16.0371 92.2188C16.0371 91.7364 15.846 91.2737 15.5049 90.9326C15.1638 90.5915 14.7011 90.4004 14.2188 90.4004ZM23.4062 86.1621C24.3163 86.1621 25.1885 86.5245 25.832 87.168C26.4755 87.8115 26.8379 88.6837 26.8379 89.5938C26.8379 90.5038 26.4755 91.376 25.832 92.0195C25.1885 92.663 24.3163 93.0254 23.4062 93.0254C22.4962 93.0254 21.624 92.663 20.9805 92.0195C20.337 91.376 19.9746 90.5038 19.9746 89.5938C19.9746 88.6837 20.337 87.8115 20.9805 87.168C21.624 86.5245 22.4962 86.1621 23.4062 86.1621ZM23.4062 87.7754C22.9239 87.7754 22.4612 87.9665 22.1201 88.3076C21.779 88.6487 21.5879 89.1114 21.5879 89.5938C21.5879 90.0761 21.779 90.5388 22.1201 90.8799C22.4612 91.221 22.9239 91.4121 23.4062 91.4121C23.8886 91.4121 24.3513 91.221 24.6924 90.8799C25.0335 90.5388 25.2246 90.0761 25.2246 89.5938C25.2246 89.1114 25.0335 88.6487 24.6924 88.3076C24.3513 87.9665 23.8886 87.7754 23.4062 87.7754Z" fill="#7FA8FF" stroke="#7FA8FF" stroke-width="0.3"></path>
<path d="M97.4619 12.8975C97.7689 12.8028 98.0558 12.8504 98.3047 13.0459C98.552 13.2399 98.6776 13.502 98.6777 13.8184C98.6777 14.037 98.6192 14.2357 98.499 14.4082C98.3796 14.5796 98.2211 14.699 98.0264 14.7588L98.0195 14.7607L98.0117 14.7617C95.7553 15.21 93.8829 16.2779 92.3906 17.9678L92.0977 18.3145C90.559 20.2045 89.79 22.3897 89.79 24.876C89.7901 27.7404 90.7828 30.1724 92.7705 32.1807C94.7582 34.1889 97.1652 35.1914 100 35.1914C101.477 35.1914 102.889 34.8911 104.237 34.2891C105.585 33.6872 106.726 32.8397 107.658 31.7471L107.661 31.7432L107.792 31.6211C107.929 31.5126 108.084 31.4476 108.256 31.4316L108.341 31.4268C108.481 31.4269 108.615 31.4617 108.74 31.5283L108.887 31.623L108.888 31.624C109.126 31.8115 109.251 32.0625 109.258 32.3652C109.264 32.6707 109.134 32.9479 108.894 33.1943C107.698 34.488 106.348 35.4718 104.841 36.1426C103.335 36.8143 101.721 37.1504 100 37.1504C98.3234 37.1504 96.7448 36.8269 95.2656 36.1807C93.7894 35.5348 92.503 34.6598 91.4092 33.5547C90.3146 32.4487 89.4487 31.1492 88.8105 29.6582C88.1702 28.1641 87.8496 26.5694 87.8496 24.876C87.8496 21.9583 88.7407 19.3841 90.5225 17.1602H90.5234C92.3072 14.9362 94.622 13.5144 97.4619 12.8975ZM101.655 13.0537C101.912 12.8701 102.202 12.8187 102.512 12.8984L102.511 12.8994C105.303 13.4534 107.609 14.8595 109.425 17.1152C111.242 19.3729 112.151 21.9618 112.15 24.876C112.15 25.5294 112.102 26.1664 112.008 26.7871L112.009 26.7881C111.915 27.4085 111.761 28.0031 111.55 28.5723C111.48 28.8653 111.309 29.082 111.04 29.209C110.773 29.3349 110.492 29.3426 110.205 29.2383H110.202C109.983 29.1546 109.822 29.0047 109.727 28.7939L109.694 28.7148C109.628 28.5283 109.626 28.3291 109.681 28.1221V28.1191H109.682C109.849 27.5358 109.978 26.9711 110.07 26.4258C110.162 25.8817 110.209 25.3651 110.21 24.876C110.21 22.3957 109.431 20.2089 107.873 18.3096C106.315 16.4091 104.344 15.2274 101.955 14.7617L101.944 14.7598C101.734 14.7024 101.565 14.5845 101.442 14.4082C101.323 14.2353 101.263 14.037 101.262 13.8193V13.8184C101.262 13.499 101.395 13.239 101.655 13.0537Z" fill="#7FA8FF" stroke="#7FA8FF" stroke-width="0.3"></path>
<path d="M23.4287 13.8496C24.1504 13.8496 24.8422 14.1371 25.3525 14.6475C25.8629 15.1578 26.1504 15.8496 26.1504 16.5713V29.4287C26.1504 30.1504 25.8629 30.8422 25.3525 31.3525C24.8422 31.8629 24.1504 32.1504 23.4287 32.1504H10.5713C9.84957 32.1504 9.15779 31.8629 8.64746 31.3525C8.13713 30.8422 7.84965 30.1504 7.84961 29.4287V16.5713C7.84965 15.8496 8.13713 15.1578 8.64746 14.6475C9.15779 14.1371 9.84957 13.8496 10.5713 13.8496H23.4287ZM10.5713 15.4355C10.2701 15.4356 9.98151 15.5556 9.76855 15.7686C9.5556 15.9815 9.43558 16.2701 9.43555 16.5713V29.4287C9.43558 29.7299 9.5556 30.0185 9.76855 30.2314C9.98151 30.4444 10.2701 30.5644 10.5713 30.5645H23.4287C23.7299 30.5644 24.0185 30.4444 24.2314 30.2314C24.4444 30.0185 24.5644 29.7299 24.5645 29.4287V16.5713C24.5644 16.2701 24.4444 15.9815 24.2314 15.7686C24.0185 15.5556 23.7299 15.4356 23.4287 15.4355H10.5713ZM12.5 20.2783C12.7102 20.2783 12.9119 20.3621 13.0605 20.5107C13.2092 20.6594 13.2929 20.8611 13.293 21.0713V27.5C13.293 27.7103 13.2092 27.9119 13.0605 28.0605C12.9119 28.2092 12.7103 28.293 12.5 28.293C12.2897 28.293 12.0881 28.2092 11.9395 28.0605C11.7908 27.9119 11.707 27.7103 11.707 27.5V21.0713C11.7071 20.8611 11.7908 20.6594 11.9395 20.5107C12.0881 20.3621 12.2898 20.2783 12.5 20.2783ZM17 22.8496C17.2102 22.8496 17.4119 22.9334 17.5605 23.082C17.7092 23.2307 17.7929 23.4324 17.793 23.6426V27.5C17.793 27.7103 17.7092 27.9119 17.5605 28.0605C17.4119 28.2092 17.2103 28.293 17 28.293C16.7897 28.293 16.5881 28.2092 16.4395 28.0605C16.2908 27.9119 16.207 27.7103 16.207 27.5V23.6426C16.2071 23.4324 16.2908 23.2307 16.4395 23.082C16.5881 22.9334 16.7898 22.8496 17 22.8496ZM21.5 17.707C21.7103 17.707 21.9119 17.7908 22.0605 17.9395C22.2092 18.0881 22.293 18.2897 22.293 18.5V27.5C22.293 27.7103 22.2092 27.9119 22.0605 28.0605C21.9119 28.2092 21.7103 28.293 21.5 28.293C21.2897 28.293 21.0881 28.2092 20.9395 28.0605C20.7908 27.9119 20.707 27.7103 20.707 27.5V18.5C20.707 18.2897 20.7908 18.0881 20.9395 17.9395C21.0881 17.7908 21.2897 17.707 21.5 17.707Z" fill="#7FA8FF" stroke="#7FA8FF" stroke-width="0.3"></path>
<path d="M86.3166 39.887L86.7036 39.5704L86.0704 38.7964L85.6834 39.113L86 39.5L86.3166 39.887ZM74.5025 48.4502C74.475 48.725 74.6755 48.97 74.9502 48.9975L79.4279 49.4453C79.7027 49.4728 79.9477 49.2723 79.9752 48.9975C80.0027 48.7227 79.8022 48.4777 79.5274 48.4502L75.5473 48.0522L75.9453 44.0721C75.9728 43.7973 75.7723 43.5523 75.4975 43.5248C75.2227 43.4973 74.9777 43.6978 74.9502 43.9726L74.5025 48.4502ZM76.0041 48.3245L76.3911 48.0079L75.7579 47.2339L75.3709 47.5505L75.6875 47.9375L76.0041 48.3245ZM76.7459 46.4255L76.3589 46.7421L76.9921 47.5161L77.3791 47.1995L77.0625 46.8125L76.7459 46.4255ZM78.7541 46.0745L79.1411 45.7579L78.5079 44.9839L78.1209 45.3005L78.4375 45.6875L78.7541 46.0745ZM79.4959 44.1755L79.1089 44.4921L79.7421 45.2661L80.1291 44.9495L79.8125 44.5625L79.4959 44.1755ZM81.5041 43.8245L81.8911 43.5079L81.2579 42.7339L80.8709 43.0505L81.1875 43.4375L81.5041 43.8245ZM82.2459 41.9255L81.8589 42.2421L82.4921 43.0161L82.8791 42.6995L82.5625 42.3125L82.2459 41.9255ZM84.2541 41.5745L84.6411 41.2579L84.0079 40.4839L83.6209 40.8005L83.9375 41.1875L84.2541 41.5745ZM84.9959 39.6755L84.6089 39.9921L85.2421 40.7661L85.6291 40.4495L85.3125 40.0625L84.9959 39.6755ZM75 48.5L75.3166 48.887L76.0041 48.3245L75.6875 47.9375L75.3709 47.5505L74.6834 48.113L75 48.5ZM77.0625 46.8125L77.3791 47.1995L78.7541 46.0745L78.4375 45.6875L78.1209 45.3005L76.7459 46.4255L77.0625 46.8125ZM79.8125 44.5625L80.1291 44.9495L81.5041 43.8245L81.1875 43.4375L80.8709 43.0505L79.4959 44.1755L79.8125 44.5625ZM82.5625 42.3125L82.8791 42.6995L84.2541 41.5745L83.9375 41.1875L83.6209 40.8005L82.2459 41.9255L82.5625 42.3125ZM85.3125 40.0625L85.6291 40.4495L86.3166 39.887L86 39.5L85.6834 39.113L84.9959 39.6755L85.3125 40.0625Z" fill="#7FA8FF"></path>
<path d="M88.842 83.6352L89.2067 83.9772L88.5228 84.7067L88.158 84.3648L88.5 84L88.842 83.6352ZM80.0003 76.5161C79.9914 76.2401 80.2079 76.0092 80.4839 76.0003L84.9815 75.8552C85.2575 75.8463 85.4885 76.0628 85.4974 76.3388C85.5063 76.6148 85.2898 76.8458 85.0138 76.8547L81.0159 76.9836L81.1448 80.9815C81.1537 81.2575 80.9372 81.4885 80.6612 81.4974C80.3852 81.5063 80.1542 81.2898 80.1453 81.0138L80.0003 76.5161ZM81.5086 76.7602L81.8734 77.1022L81.1895 77.8317L80.8247 77.4898L81.1667 77.125L81.5086 76.7602ZM82.158 78.7398L81.7933 78.3978L82.4772 77.6683L82.842 78.0102L82.5 78.375L82.158 78.7398ZM84.1753 79.2602L84.5401 79.6022L83.8561 80.3317L83.4914 79.9898L83.8333 79.625L84.1753 79.2602ZM84.8247 81.2398L84.4599 80.8978L85.1439 80.1683L85.5086 80.5102L85.1667 80.875L84.8247 81.2398ZM86.842 81.7602L87.2067 82.1022L86.5228 82.8317L86.158 82.4898L86.5 82.125L86.842 81.7602ZM87.4914 83.7398L87.1266 83.3978L87.8105 82.6683L88.1753 83.0102L87.8333 83.375L87.4914 83.7398ZM80.5 76.5L80.842 76.1352L81.5086 76.7602L81.1667 77.125L80.8247 77.4898L80.158 76.8648L80.5 76.5ZM82.5 78.375L82.842 78.0102L84.1753 79.2602L83.8333 79.625L83.4914 79.9898L82.158 78.7398L82.5 78.375ZM85.1667 80.875L85.5086 80.5102L86.842 81.7602L86.5 82.125L86.158 82.4898L84.8247 81.2398L85.1667 80.875ZM87.8333 83.375L88.1753 83.0102L88.842 83.6352L88.5 84L88.158 84.3648L87.4914 83.7398L87.8333 83.375Z" fill="#7FA8FF"></path>
<path d="M29.8427 36.1359L29.4786 35.7932L28.7932 36.5214L29.1573 36.8641L29.5 36.5L29.8427 36.1359ZM38.0151 44.9998C38.2912 44.9914 38.5081 44.7609 38.4998 44.4849L38.3635 39.9869C38.3551 39.7109 38.1246 39.4939 37.8486 39.5023C37.5725 39.5107 37.3556 39.7412 37.3639 40.0172L37.4851 44.0154L33.4869 44.1365C33.2109 44.1449 32.9939 44.3754 33.0023 44.6514C33.0107 44.9275 33.2412 45.1444 33.5172 45.1361L38.0151 44.9998ZM29.8657 37.5308L30.2298 37.8734L30.9151 37.1452L30.551 36.8026L30.2083 37.1667L29.8657 37.5308ZM31.9677 38.1359L31.6036 37.7932L30.9182 38.5214L31.2823 38.8641L31.625 38.5L31.9677 38.1359ZM32.699 40.1974L33.0631 40.5401L33.7484 39.8119L33.3843 39.4692L33.0417 39.8333L32.699 40.1974ZM34.801 40.8026L34.4369 40.4599L33.7516 41.1881L34.1157 41.5308L34.4583 41.1667L34.801 40.8026ZM35.5323 42.8641L35.8964 43.2068L36.5818 42.4786L36.2177 42.1359L35.875 42.5L35.5323 42.8641ZM37.6343 43.4692L37.2702 43.1266L36.5849 43.8548L36.949 44.1974L37.2917 43.8333L37.6343 43.4692ZM29.5 36.5L29.1573 36.8641L29.8657 37.5308L30.2083 37.1667L30.551 36.8026L29.8427 36.1359L29.5 36.5ZM31.625 38.5L31.2823 38.8641L32.699 40.1974L33.0417 39.8333L33.3843 39.4692L31.9677 38.1359L31.625 38.5ZM34.4583 41.1667L34.1157 41.5308L35.5323 42.8641L35.875 42.5L36.2177 42.1359L34.801 40.8026L34.4583 41.1667ZM37.2917 43.8333L36.949 44.1974L37.6573 44.8641L38 44.5L38.3427 44.1359L37.6343 43.4692L37.2917 43.8333Z" fill="#7FA8FF"></path>
<path d="M29.8427 85.3641L29.4786 85.7068L28.7932 84.9786L29.1573 84.6359L29.5 85L29.8427 85.3641ZM38.0151 76.5002C38.2912 76.5086 38.5081 76.7391 38.4998 77.0151L38.3635 81.5131C38.3551 81.7891 38.1246 82.0061 37.8486 81.9977C37.5725 81.9893 37.3556 81.7588 37.3639 81.4828L37.4851 77.4846L33.4869 77.3635C33.2109 77.3551 32.9939 77.1246 33.0023 76.8486C33.0107 76.5725 33.2412 76.3556 33.5172 76.3639L38.0151 76.5002ZM29.8657 83.9692L30.2298 83.6266L30.9151 84.3548L30.551 84.6974L30.2083 84.3333L29.8657 83.9692ZM31.9677 83.3641L31.6036 83.7068L30.9182 82.9786L31.2823 82.6359L31.625 83L31.9677 83.3641ZM32.699 81.3026L33.0631 80.9599L33.7484 81.6881L33.3843 82.0308L33.0417 81.6667L32.699 81.3026ZM34.801 80.6974L34.4369 81.0401L33.7516 80.3119L34.1157 79.9692L34.4583 80.3333L34.801 80.6974ZM35.5323 78.6359L35.8964 78.2932L36.5818 79.0214L36.2177 79.3641L35.875 79L35.5323 78.6359ZM37.6343 78.0308L37.2702 78.3734L36.5849 77.6452L36.949 77.3026L37.2917 77.6667L37.6343 78.0308ZM29.5 85L29.1573 84.6359L29.8657 83.9692L30.2083 84.3333L30.551 84.6974L29.8427 85.3641L29.5 85ZM31.625 83L31.2823 82.6359L32.699 81.3026L33.0417 81.6667L33.3843 82.0308L31.9677 83.3641L31.625 83ZM34.4583 80.3333L34.1157 79.9692L35.5323 78.6359L35.875 79L36.2177 79.3641L34.801 80.6974L34.4583 80.3333ZM37.2917 77.6667L36.949 77.3026L37.6573 76.6359L38 77L38.3427 77.3641L37.6343 78.0308L37.2917 77.6667Z" fill="#7FA8FF"></path>
<path d="M58.5 29V28.5H57.5V29H58H58.5ZM57.6464 37.3536C57.8417 37.5488 58.1583 37.5488 58.3536 37.3536L61.5355 34.1716C61.7308 33.9763 61.7308 33.6597 61.5355 33.4645C61.3403 33.2692 61.0237 33.2692 60.8284 33.4645L58 36.2929L55.1716 33.4645C54.9763 33.2692 54.6597 33.2692 54.4645 33.4645C54.2692 33.6597 54.2692 33.9763 54.4645 34.1716L57.6464 37.3536ZM57.5 30V30.5H58.5V30H58H57.5ZM58.5 32V31.5H57.5V32H58H58.5ZM57.5 34V34.5H58.5V34H58H57.5ZM58.5 36V35.5H57.5V36H58H58.5ZM58 29H57.5V30H58H58.5V29H58ZM58 32H57.5V34H58H58.5V32H58ZM58 36H57.5V37H58H58.5V36H58Z" fill="#7FA8FF"></path>
<path d="M58.3536 78.6464C58.1583 78.4512 57.8417 78.4512 57.6464 78.6464L54.4645 81.8284C54.2692 82.0237 54.2692 82.3403 54.4645 82.5355C54.6597 82.7308 54.9763 82.7308 55.1716 82.5355L58 79.7071L60.8284 82.5355C61.0237 82.7308 61.3403 82.7308 61.5355 82.5355C61.7308 82.3403 61.7308 82.0237 61.5355 81.8284L58.3536 78.6464ZM57.5 87V87.5H58.5V87H58H57.5ZM57.5 80V80.5H58.5V80H58H57.5ZM58.5 82V81.5H57.5V82H58H58.5ZM57.5 84V84.5H58.5V84H58H57.5ZM58.5 86V85.5H57.5V86H58H58.5ZM58 79H57.5V80H58H58.5V79H58ZM58 82H57.5V84H58H58.5V82H58ZM58 86H57.5V87H58H58.5V86H58Z" fill="#7FA8FF"></path>
</svg>