<svg width="114" height="114" viewBox="0 0 114 114" fill="none" xmlns="http://www.w3.org/2000/svg">
<path d="M57 89.8C75.1155 89.8 89.8002 75.1154 89.8002 56.9999C89.8002 38.8843 75.1155 24.1997 57 24.1997C38.8845 24.1997 24.1998 38.8843 24.1998 56.9999C24.1998 75.1154 38.8845 89.8 57 89.8Z" stroke="#7FA8FF" stroke-width="4"></path>
<path d="M57.0264 52.1064C55.7215 52.1064 54.4701 52.6248 53.5474 53.5474C52.6247 54.4701 52.1064 55.7216 52.1064 57.0264C52.1064 58.3313 52.6247 59.5827 53.5474 60.5054C54.4701 61.4281 55.7215 61.9465 57.0264 61.9465C58.3313 61.9465 59.5827 61.4281 60.5054 60.5054C61.4281 59.5827 61.9464 58.3313 61.9464 57.0264C61.9464 55.7216 61.4281 54.4701 60.5054 53.5474C59.5827 52.6248 58.3313 52.1064 57.0264 52.1064ZM57.0264 52.1064V40.6001M66.8894 66.9058L60.4967 60.5164" stroke="#7FA8FF" stroke-width="4" stroke-linecap="round" stroke-linejoin="round"></path>
</svg>