<svg width="114" height="114" viewBox="0 0 114 114" fill="none" xmlns="http://www.w3.org/2000/svg">
<path d="M57.5 94C37.3176 94 21 77.6824 21 57.5C21 37.3176 37.3176 21 57.5 21C77.6824 21 94 37.3176 94 57.5C94 77.6824 77.6824 94 57.5 94ZM57.5 25.2941C39.6794 25.2941 25.2941 39.6794 25.2941 57.5C25.2941 75.3206 39.6794 89.7059 57.5 89.7059C75.3206 89.7059 89.7059 75.3206 89.7059 57.5C89.7059 39.6794 75.3206 25.2941 57.5 25.2941Z" fill="#7FA8FF"></path>
<path d="M53.206 73.3878L34.5266 54.7084L37.5324 51.7025L53.206 67.376L77.4677 43.1143L80.4736 46.1201L53.206 73.3878Z" fill="#7FA8FF"></path>
</svg>